<svg width="146" height="50" viewBox="0 0 146 50" fill="none" xmlns="http://www.w3.org/2000/svg">
<path d="M4.256 25C3.84533 25 3.5 24.86 3.22 24.58C2.94 24.3 2.8 23.9547 2.8 23.544V4.588C2.8 4.15867 2.94 3.81333 3.22 3.552C3.5 3.272 3.84533 3.132 4.256 3.132H9.856C11.256 3.132 12.4973 3.44 13.58 4.056C14.6627 4.672 15.5027 5.53067 16.1 6.632C16.716 7.71467 17.024 8.96533 17.024 10.384C17.024 11.7467 16.716 12.96 16.1 14.024C15.5027 15.088 14.6627 15.9187 13.58 16.516C12.4973 17.1133 11.256 17.412 9.856 17.412H5.712V23.544C5.712 23.9547 5.572 24.3 5.292 24.58C5.03067 24.86 4.68533 25 4.256 25ZM5.712 14.724H9.856C10.7147 14.724 11.4707 14.5373 12.124 14.164C12.7773 13.7907 13.2907 13.2773 13.664 12.624C14.0373 11.9707 14.224 11.224 14.224 10.384C14.224 9.488 14.0373 8.704 13.664 8.032C13.2907 7.34133 12.7773 6.8 12.124 6.408C11.4707 6.016 10.7147 5.82 9.856 5.82H5.712V14.724ZM34.2733 25.28C32.6306 25.28 31.128 25.0093 29.7653 24.468C28.4026 23.908 27.2266 23.1333 26.2373 22.144C25.2666 21.136 24.5106 19.9507 23.9693 18.588C23.428 17.2067 23.1573 15.6947 23.1573 14.052C23.1573 12.4093 23.428 10.9067 23.9693 9.544C24.5106 8.18133 25.2666 7.00533 26.2373 6.016C27.2266 5.008 28.4026 4.23333 29.7653 3.692C31.128 3.132 32.6306 2.852 34.2733 2.852C35.916 2.852 37.4093 3.132 38.7533 3.692C40.116 4.23333 41.292 5.008 42.2813 6.016C43.2706 7.00533 44.036 8.18133 44.5773 9.544C45.1186 10.9067 45.3893 12.4093 45.3893 14.052C45.3893 15.6947 45.1186 17.2067 44.5773 18.588C44.036 19.9507 43.2706 21.136 42.2813 22.144C41.292 23.1333 40.116 23.908 38.7533 24.468C37.4093 25.0093 35.916 25.28 34.2733 25.28ZM34.2733 22.648C35.4866 22.648 36.5973 22.4333 37.6053 22.004C38.632 21.556 39.5186 20.9493 40.2653 20.184C41.012 19.4 41.5813 18.4853 41.9733 17.44C42.384 16.3947 42.5893 15.2653 42.5893 14.052C42.5893 12.8387 42.384 11.7093 41.9733 10.664C41.5813 9.61867 41.012 8.71333 40.2653 7.948C39.5186 7.164 38.632 6.55733 37.6053 6.128C36.5973 5.69867 35.4866 5.484 34.2733 5.484C33.06 5.484 31.94 5.69867 30.9133 6.128C29.9053 6.55733 29.028 7.164 28.2813 7.948C27.5533 8.71333 26.984 9.61867 26.5733 10.664C26.1626 11.7093 25.9573 12.8387 25.9573 14.052C25.9573 15.2653 26.1626 16.3947 26.5733 17.44C26.984 18.4853 27.5533 19.4 28.2813 20.184C29.028 20.9493 29.9053 21.556 30.9133 22.004C31.94 22.4333 33.06 22.648 34.2733 22.648ZM58.6705 25C58.2598 25 57.9145 24.86 57.6345 24.58C57.3545 24.3 57.2145 23.9547 57.2145 23.544V3.132H60.1265V23.544C60.1265 23.9547 59.9865 24.3 59.7065 24.58C59.4265 24.86 59.0812 25 58.6705 25ZM51.1665 5.82C50.7745 5.82 50.4478 5.69867 50.1865 5.456C49.9438 5.19467 49.8225 4.868 49.8225 4.476C49.8225 4.084 49.9438 3.76667 50.1865 3.524C50.4478 3.26267 50.7745 3.132 51.1665 3.132H66.1465C66.5385 3.132 66.8558 3.26267 67.0985 3.524C67.3598 3.76667 67.4905 4.084 67.4905 4.476C67.4905 4.868 67.3598 5.19467 67.0985 5.456C66.8558 5.69867 66.5385 5.82 66.1465 5.82H51.1665ZM83.3477 25.28C81.705 25.28 80.2024 25.0093 78.8397 24.468C77.477 23.908 76.301 23.1333 75.3117 22.144C74.341 21.136 73.585 19.9507 73.0437 18.588C72.5024 17.2067 72.2317 15.6947 72.2317 14.052C72.2317 12.4093 72.5024 10.9067 73.0437 9.544C73.585 8.18133 74.341 7.00533 75.3117 6.016C76.301 5.008 77.477 4.23333 78.8397 3.692C80.2024 3.132 81.705 2.852 83.3477 2.852C84.9904 2.852 86.4837 3.132 87.8277 3.692C89.1904 4.23333 90.3664 5.008 91.3557 6.016C92.345 7.00533 93.1104 8.18133 93.6517 9.544C94.193 10.9067 94.4637 12.4093 94.4637 14.052C94.4637 15.6947 94.193 17.2067 93.6517 18.588C93.1104 19.9507 92.345 21.136 91.3557 22.144C90.3664 23.1333 89.1904 23.908 87.8277 24.468C86.4837 25.0093 84.9904 25.28 83.3477 25.28ZM83.3477 22.648C84.561 22.648 85.6717 22.4333 86.6797 22.004C87.7064 21.556 88.593 20.9493 89.3397 20.184C90.0864 19.4 90.6557 18.4853 91.0477 17.44C91.4584 16.3947 91.6637 15.2653 91.6637 14.052C91.6637 12.8387 91.4584 11.7093 91.0477 10.664C90.6557 9.61867 90.0864 8.71333 89.3397 7.948C88.593 7.164 87.7064 6.55733 86.6797 6.128C85.6717 5.69867 84.561 5.484 83.3477 5.484C82.1344 5.484 81.0144 5.69867 79.9877 6.128C78.9797 6.55733 78.1024 7.164 77.3557 7.948C76.6277 8.71333 76.0584 9.61867 75.6477 10.664C75.237 11.7093 75.0317 12.8387 75.0317 14.052C75.0317 15.2653 75.237 16.3947 75.6477 17.44C76.0584 18.4853 76.6277 19.4 77.3557 20.184C78.1024 20.9493 78.9797 21.556 79.9877 22.004C81.0144 22.4333 82.1344 22.648 83.3477 22.648ZM104.373 25C103.962 25 103.617 24.86 103.337 24.58C103.076 24.3 102.945 23.9547 102.945 23.544V4.588C102.945 4.17733 103.085 3.832 103.365 3.552C103.645 3.272 103.981 3.132 104.373 3.132C104.784 3.132 105.129 3.272 105.409 3.552C105.689 3.832 105.829 4.17733 105.829 4.588V22.088H115.965C116.376 22.088 116.721 22.228 117.001 22.508C117.281 22.788 117.421 23.1333 117.421 23.544C117.421 23.9547 117.281 24.3 117.001 24.58C116.721 24.86 116.376 25 115.965 25H104.373ZM132.969 25.28C131.326 25.28 129.824 25.0093 128.461 24.468C127.098 23.908 125.922 23.1333 124.933 22.144C123.962 21.136 123.206 19.9507 122.665 18.588C122.124 17.2067 121.853 15.6947 121.853 14.052C121.853 12.4093 122.124 10.9067 122.665 9.544C123.206 8.18133 123.962 7.00533 124.933 6.016C125.922 5.008 127.098 4.23333 128.461 3.692C129.824 3.132 131.326 2.852 132.969 2.852C134.612 2.852 136.105 3.132 137.449 3.692C138.812 4.23333 139.988 5.008 140.977 6.016C141.966 7.00533 142.732 8.18133 143.273 9.544C143.814 10.9067 144.085 12.4093 144.085 14.052C144.085 15.6947 143.814 17.2067 143.273 18.588C142.732 19.9507 141.966 21.136 140.977 22.144C139.988 23.1333 138.812 23.908 137.449 24.468C136.105 25.0093 134.612 25.28 132.969 25.28ZM132.969 22.648C134.182 22.648 135.293 22.4333 136.301 22.004C137.328 21.556 138.214 20.9493 138.961 20.184C139.708 19.4 140.277 18.4853 140.669 17.44C141.08 16.3947 141.285 15.2653 141.285 14.052C141.285 12.8387 141.08 11.7093 140.669 10.664C140.277 9.61867 139.708 8.71333 138.961 7.948C138.214 7.164 137.328 6.55733 136.301 6.128C135.293 5.69867 134.182 5.484 132.969 5.484C131.756 5.484 130.636 5.69867 129.609 6.128C128.601 6.55733 127.724 7.164 126.977 7.948C126.249 8.71333 125.68 9.61867 125.269 10.664C124.858 11.7093 124.653 12.8387 124.653 14.052C124.653 15.2653 124.858 16.3947 125.269 17.44C125.68 18.4853 126.249 19.4 126.977 20.184C127.724 20.9493 128.601 21.556 129.609 22.004C130.636 22.4333 131.756 22.648 132.969 22.648Z" fill="white"/>
<path d="M3.22 24.58L2.15934 25.6407L2.15934 25.6407L3.22 24.58ZM3.22 3.552L4.24348 4.64858L4.26238 4.63094L4.28066 4.61266L3.22 3.552ZM13.58 4.056L12.8382 5.35975L12.8382 5.35975L13.58 4.056ZM16.1 6.632L14.7815 7.34714L14.7887 7.36054L14.7963 7.37379L16.1 6.632ZM16.1 14.024L14.8019 13.2724L14.7969 13.281L14.792 13.2897L16.1 14.024ZM13.58 16.516L14.3046 17.8294L14.3046 17.8294L13.58 16.516ZM5.712 17.412V15.912H4.212V17.412H5.712ZM5.292 24.58L4.23134 23.5193L4.21306 23.5376L4.19542 23.5565L5.292 24.58ZM5.712 14.724H4.212V16.224H5.712V14.724ZM12.124 14.164L11.3798 12.8616L11.3798 12.8616L12.124 14.164ZM13.664 12.624L14.9664 13.3682L14.9664 13.3682L13.664 12.624ZM13.664 8.032L12.3444 8.74528L12.3486 8.75289L12.3528 8.76046L13.664 8.032ZM5.712 5.82V4.32H4.212V5.82H5.712ZM4.256 23.5C4.23877 23.5 4.23191 23.4986 4.23338 23.4988C4.23516 23.4992 4.24227 23.5007 4.25256 23.5049C4.26292 23.5091 4.27198 23.5141 4.27858 23.5185C4.285 23.5228 4.28553 23.5242 4.28066 23.5193L2.15934 25.6407C2.73208 26.2134 3.46398 26.5 4.256 26.5V23.5ZM4.28066 23.5193C4.27579 23.5145 4.27715 23.515 4.28146 23.5214C4.28589 23.528 4.29091 23.5371 4.29511 23.5474C4.29928 23.5577 4.30084 23.5648 4.30117 23.5666C4.30145 23.5681 4.3 23.5612 4.3 23.544H1.3C1.3 24.336 1.5866 25.0679 2.15934 25.6407L4.28066 23.5193ZM4.3 23.544V4.588H1.3V23.544H4.3ZM4.3 4.588C4.3 4.53743 4.30787 4.53909 4.29511 4.57056C4.28909 4.58542 4.28046 4.60179 4.26954 4.61756C4.2587 4.63322 4.2489 4.64352 4.24348 4.64858L2.19652 2.45542C1.5742 3.03625 1.3 3.79846 1.3 4.588H4.3ZM4.28066 4.61266C4.28553 4.60779 4.285 4.60915 4.27858 4.61346C4.27198 4.61789 4.26292 4.62291 4.25256 4.62711C4.24227 4.63128 4.23516 4.63284 4.23338 4.63317C4.23191 4.63345 4.23877 4.632 4.256 4.632V1.632C3.46398 1.632 2.73208 1.9186 2.15934 2.49134L4.28066 4.61266ZM4.256 4.632H9.856V1.632H4.256V4.632ZM9.856 4.632C11.0288 4.632 12.0086 4.8877 12.8382 5.35975L14.3218 2.75225C12.9861 1.9923 11.4832 1.632 9.856 1.632V4.632ZM12.8382 5.35975C13.6759 5.83639 14.3168 6.49049 14.7815 7.34714L17.4185 5.91685C16.6885 4.57084 15.6494 3.50761 14.3218 2.75225L12.8382 5.35975ZM14.7963 7.37379C15.2666 8.2005 15.524 9.18873 15.524 10.384H18.524C18.524 8.74193 18.1654 7.22883 17.4037 5.89021L14.7963 7.37379ZM15.524 10.384C15.524 11.5121 15.2717 12.4609 14.8019 13.2724L17.3981 14.7756C18.1603 13.4591 18.524 11.9813 18.524 10.384H15.524ZM14.792 13.2897C14.3334 14.1067 13.6969 14.7383 12.8554 15.2026L14.3046 17.8294C15.6284 17.099 16.672 16.0693 17.408 14.7583L14.792 13.2897ZM12.8554 15.2026C12.0226 15.6621 11.0366 15.912 9.856 15.912V18.912C11.4754 18.912 12.9721 18.5646 14.3046 17.8294L12.8554 15.2026ZM9.856 15.912H5.712V18.912H9.856V15.912ZM4.212 17.412V23.544H7.212V17.412H4.212ZM4.212 23.544C4.212 23.5612 4.21055 23.5681 4.21083 23.5666C4.21116 23.5648 4.21272 23.5577 4.21689 23.5474C4.22109 23.5371 4.22611 23.528 4.23054 23.5214C4.23485 23.515 4.23621 23.5145 4.23134 23.5193L6.35266 25.6407C6.9254 25.0679 7.212 24.336 7.212 23.544H4.212ZM4.19542 23.5565C4.20048 23.5511 4.21078 23.5413 4.22644 23.5305C4.24221 23.5195 4.25858 23.5109 4.27344 23.5049C4.30491 23.4921 4.30657 23.5 4.256 23.5V26.5C5.04554 26.5 5.80775 26.2258 6.38858 25.6035L4.19542 23.5565ZM5.712 16.224H9.856V13.224H5.712V16.224ZM9.856 16.224C10.9383 16.224 11.9578 15.9866 12.8682 15.4664L11.3798 12.8616C10.9835 13.0881 10.491 13.224 9.856 13.224V16.224ZM12.8682 15.4664C13.7541 14.9601 14.4601 14.2541 14.9664 13.3682L12.3616 11.8798C12.1212 12.3006 11.8006 12.6212 11.3798 12.8616L12.8682 15.4664ZM14.9664 13.3682C15.4838 12.4627 15.724 11.454 15.724 10.384H12.724C12.724 10.994 12.5909 11.4786 12.3616 11.8798L14.9664 13.3682ZM15.724 10.384C15.724 9.27556 15.4915 8.23277 14.9752 7.30354L12.3528 8.76046C12.5832 9.17522 12.724 9.70043 12.724 10.384H15.724ZM14.9836 7.31872C14.4864 6.39895 13.787 5.65652 12.8957 5.12176L11.3523 7.69424C11.7677 7.94348 12.0949 8.28371 12.3444 8.74528L14.9836 7.31872ZM12.8957 5.12176C11.9807 4.57276 10.9512 4.32 9.856 4.32V7.32C10.4781 7.32 10.9606 7.45924 11.3523 7.69424L12.8957 5.12176ZM9.856 4.32H5.712V7.32H9.856V4.32ZM4.212 5.82V14.724H7.212V5.82H4.212ZM29.7653 24.468L29.1951 25.8554L29.2033 25.8588L29.2115 25.862L29.7653 24.468ZM26.2373 22.144L25.1568 23.1845L25.1666 23.1947L25.1767 23.2047L26.2373 22.144ZM23.9693 18.588L22.5727 19.1353L22.5753 19.1418L23.9693 18.588ZM23.9693 9.544L22.5753 8.99021L22.5753 8.99021L23.9693 9.544ZM26.2373 6.016L25.1668 4.9653L25.1666 4.96549L26.2373 6.016ZM29.7653 3.692L30.3191 5.08603L30.3273 5.08277L30.3355 5.07941L29.7653 3.692ZM38.7533 3.692L38.1764 5.07661L38.1879 5.08142L38.1995 5.08603L38.7533 3.692ZM42.2813 6.016L41.2107 7.06675L41.2207 7.07666L42.2813 6.016ZM44.5773 9.544L45.9713 8.99021L45.9713 8.99021L44.5773 9.544ZM44.5773 18.588L45.9714 19.1418L45.9739 19.1353L44.5773 18.588ZM42.2813 22.144L43.342 23.2047L43.3518 23.1947L42.2813 22.144ZM38.7533 24.468L39.3137 25.8594L39.3235 25.8554L38.7533 24.468ZM37.6053 22.004L38.1931 23.3841L38.2052 23.3788L37.6053 22.004ZM40.2653 20.184L41.339 21.2315L41.3453 21.225L41.3515 21.2185L40.2653 20.184ZM41.9733 17.44L40.5772 16.8915L40.5729 16.9024L40.5688 16.9133L41.9733 17.44ZM41.9733 10.664L40.5688 11.1907L40.5729 11.2016L40.5772 11.2125L41.9733 10.664ZM40.2653 7.948L39.1791 8.98248L39.1853 8.98902L39.1916 8.99549L40.2653 7.948ZM37.6053 6.128L37.0175 7.50807L37.0266 7.51187L37.6053 6.128ZM30.9133 6.128L30.3346 4.7441L30.3255 4.74796L30.9133 6.128ZM28.2813 7.948L27.1951 6.91352L27.1945 6.91418L28.2813 7.948ZM28.2813 20.184L27.1821 21.2047L27.1947 21.2182L27.2076 21.2315L28.2813 20.184ZM30.9133 22.004L30.3041 23.3747L30.3193 23.3815L30.3346 23.3879L30.9133 22.004ZM34.2733 23.78C32.7975 23.78 31.4856 23.5374 30.3191 23.074L29.2115 25.862C30.7704 26.4813 32.4637 26.78 34.2733 26.78V23.78ZM30.3355 23.0806C29.1464 22.5919 28.1397 21.925 27.298 21.0833L25.1767 23.2047C26.3136 24.3416 27.6589 25.2241 29.1951 25.8554L30.3355 23.0806ZM27.3178 21.1035C26.4887 20.2425 25.8362 19.2246 25.3633 18.0342L22.5753 19.1418C23.185 20.6767 24.0446 22.0295 25.1568 23.1845L27.3178 21.1035ZM25.3659 18.0407C24.8999 16.8515 24.6573 15.5274 24.6573 14.052H21.6573C21.6573 15.8619 21.9561 17.5618 22.5727 19.1353L25.3659 18.0407ZM24.6573 14.052C24.6573 12.5762 24.9 11.2643 25.3633 10.0978L22.5753 8.99021C21.956 10.5491 21.6573 12.2424 21.6573 14.052H24.6573ZM25.3633 10.0978C25.8353 8.90965 26.4851 7.90528 27.308 7.06651L25.1666 4.96549C24.0482 6.10539 23.1859 7.45302 22.5753 8.99021L25.3633 10.0978ZM27.3078 7.0667C28.1451 6.21362 29.1431 5.55319 30.3191 5.08603L29.2115 2.29797C27.6622 2.91347 26.3082 3.80238 25.1668 4.9653L27.3078 7.0667ZM30.3355 5.07941C31.4976 4.60185 32.8037 4.352 34.2733 4.352V1.352C32.4575 1.352 30.7584 1.66215 29.1951 2.30459L30.3355 5.07941ZM34.2733 4.352C35.7433 4.352 37.0372 4.60195 38.1764 5.07661L39.3302 2.30738C37.7814 1.66205 36.0887 1.352 34.2733 1.352V4.352ZM38.1995 5.08603C39.3755 5.55319 40.3735 6.21362 41.2108 7.0667L43.3518 4.9653C42.2105 3.80238 40.8565 2.91347 39.3071 2.29797L38.1995 5.08603ZM41.2207 7.07666C42.0586 7.9146 42.7137 8.91574 43.1833 10.0978L45.9713 8.99021C45.3583 7.44693 44.4827 6.09606 43.342 4.95534L41.2207 7.07666ZM43.1833 10.0978C43.6467 11.2643 43.8893 12.5762 43.8893 14.052H46.8893C46.8893 12.2424 46.5906 10.5491 45.9713 8.99021L43.1833 10.0978ZM43.8893 14.052C43.8893 15.5274 43.6468 16.8515 43.1807 18.0407L45.9739 19.1353C46.5905 17.5618 46.8893 15.8619 46.8893 14.052H43.8893ZM43.1833 18.0342C42.7128 19.2186 42.055 20.2332 41.2108 21.0933L43.3518 23.1947C44.4863 22.0388 45.3592 20.6827 45.9713 19.1418L43.1833 18.0342ZM41.2207 21.0833C40.379 21.925 39.3722 22.5919 38.1831 23.0806L39.3235 25.8554C40.8598 25.2241 42.205 24.3416 43.342 23.2047L41.2207 21.0833ZM38.1929 23.0766C37.0493 23.5373 35.7495 23.78 34.2733 23.78V26.78C36.0825 26.78 37.7694 26.4814 39.3137 25.8594L38.1929 23.0766ZM34.2733 24.148C35.6669 24.148 36.9802 23.9006 38.1931 23.384L37.0175 20.624C36.2144 20.966 35.3064 21.148 34.2733 21.148V24.148ZM38.2052 23.3788C39.4009 22.8571 40.4506 22.1421 41.339 21.2315L39.1916 19.1365C38.5867 19.7566 37.8631 20.2549 37.0054 20.6292L38.2052 23.3788ZM41.3515 21.2185C42.2417 20.2838 42.9172 19.1949 43.3778 17.9667L40.5688 16.9133C40.2454 17.7757 39.7822 18.5162 39.1791 19.1495L41.3515 21.2185ZM43.3694 17.9885C43.8541 16.7548 44.0893 15.4379 44.0893 14.052H41.0893C41.0893 15.0928 40.9139 16.0345 40.5772 16.8915L43.3694 17.9885ZM44.0893 14.052C44.0893 12.6661 43.8541 11.3492 43.3694 10.1155L40.5772 11.2125C40.9139 12.0695 41.0893 13.0112 41.0893 14.052H44.0893ZM43.3778 10.1373C42.9161 8.90611 42.2372 7.82121 41.339 6.90051L39.1916 8.99549C39.7867 9.60545 40.2465 10.3312 40.5688 11.1907L43.3778 10.1373ZM41.3515 6.91352C40.4577 5.97496 39.3967 5.25127 38.184 4.74413L37.0266 7.51187C37.8672 7.8634 38.5796 8.35304 39.1791 8.98248L41.3515 6.91352ZM38.1931 4.74796C36.9802 4.23136 35.6669 3.984 34.2733 3.984V6.984C35.3064 6.984 36.2144 7.16597 37.0175 7.50804L38.1931 4.74796ZM34.2733 3.984C32.8794 3.984 31.5605 4.23146 30.3346 4.74413L31.492 7.51187C32.3194 7.16587 33.2406 6.984 34.2733 6.984V3.984ZM30.3255 4.74796C29.1319 5.25636 28.0844 5.97979 27.1951 6.91352L29.3675 8.98248C29.9716 8.34821 30.6787 7.85831 31.5011 7.50804L30.3255 4.74796ZM27.1945 6.91418C26.3247 7.82853 25.6541 8.9015 25.1772 10.1155L27.9694 11.2125C28.3138 10.3358 28.7819 9.59814 29.3681 8.98182L27.1945 6.91418ZM25.1772 10.1155C24.6925 11.3492 24.4573 12.6661 24.4573 14.052H27.4573C27.4573 13.0112 27.6327 12.0695 27.9694 11.2125L25.1772 10.1155ZM24.4573 14.052C24.4573 15.4379 24.6925 16.7548 25.1772 17.9885L27.9694 16.8915C27.6327 16.0345 27.4573 15.0928 27.4573 14.052H24.4573ZM25.1772 17.9885C25.653 19.1996 26.3202 20.2765 27.1821 21.2047L29.3805 19.1633C28.7864 18.5235 28.315 17.7711 27.9694 16.8915L25.1772 17.9885ZM27.2076 21.2315C28.0914 22.1374 29.1278 22.8519 30.3041 23.3747L31.5225 20.6333C30.6828 20.2601 29.9645 19.7613 29.355 19.1365L27.2076 21.2315ZM30.3346 23.3879C31.5605 23.9005 32.8794 24.148 34.2733 24.148V21.148C33.2406 21.148 32.3194 20.9661 31.492 20.6201L30.3346 23.3879ZM57.6345 24.58L56.5738 25.6407L56.5738 25.6407L57.6345 24.58ZM57.2145 3.132V1.632H55.7145V3.132H57.2145ZM60.1265 3.132H61.6265V1.632H60.1265V3.132ZM59.7065 24.58L60.7672 25.6407L60.7672 25.6407L59.7065 24.58ZM50.1865 5.456L49.0873 6.47668L49.1251 6.51739L49.1658 6.55519L50.1865 5.456ZM50.1865 3.524L49.1258 2.46334L49.1258 2.46334L50.1865 3.524ZM67.0985 3.524L65.9993 4.54468L66.0371 4.58539L66.0778 4.62319L67.0985 3.524ZM67.0985 5.456L68.1592 6.51666L68.1592 6.51666L67.0985 5.456ZM58.6705 23.5C58.6533 23.5 58.6464 23.4986 58.6479 23.4988C58.6497 23.4992 58.6568 23.5007 58.6671 23.5049C58.6774 23.5091 58.6865 23.5141 58.6931 23.5185C58.6995 23.5228 58.7 23.5242 58.6952 23.5193L56.5738 25.6407C57.1466 26.2134 57.8785 26.5 58.6705 26.5V23.5ZM58.6952 23.5193C58.6903 23.5145 58.6917 23.515 58.696 23.5214C58.7004 23.528 58.7054 23.5371 58.7096 23.5474C58.7138 23.5577 58.7153 23.5648 58.7157 23.5666C58.7159 23.5681 58.7145 23.5612 58.7145 23.544H55.7145C55.7145 24.336 56.0011 25.0679 56.5738 25.6407L58.6952 23.5193ZM58.7145 23.544V3.132H55.7145V23.544H58.7145ZM57.2145 4.632H60.1265V1.632H57.2145V4.632ZM58.6265 3.132V23.544H61.6265V3.132H58.6265ZM58.6265 23.544C58.6265 23.5612 58.6251 23.5681 58.6253 23.5666C58.6257 23.5648 58.6272 23.5577 58.6314 23.5474C58.6356 23.5371 58.6406 23.528 58.645 23.5214C58.6493 23.515 58.6507 23.5145 58.6458 23.5193L60.7672 25.6407C61.3399 25.0679 61.6265 24.336 61.6265 23.544H58.6265ZM58.6458 23.5193C58.641 23.5242 58.6415 23.5228 58.6479 23.5185C58.6545 23.5141 58.6636 23.5091 58.6739 23.5049C58.6842 23.5007 58.6913 23.4992 58.6931 23.4988C58.6946 23.4986 58.6877 23.5 58.6705 23.5V26.5C59.4625 26.5 60.1944 26.2134 60.7672 25.6407L58.6458 23.5193ZM51.1665 4.32C51.1459 4.32 51.1358 4.31841 51.1345 4.31818C51.1333 4.31799 51.1391 4.31891 51.1498 4.32286C51.1606 4.32687 51.1726 4.33261 51.1843 4.33985C51.1959 4.34704 51.2036 4.35347 51.2072 4.35681L49.1658 6.55519C49.7331 7.08197 50.4367 7.32 51.1665 7.32V4.32ZM51.2857 4.43532C51.289 4.43892 51.2955 4.4466 51.3026 4.45822C51.3099 4.46991 51.3156 4.48192 51.3196 4.49272C51.3236 4.50335 51.3245 4.50916 51.3243 4.50804C51.3241 4.50665 51.3225 4.49657 51.3225 4.476H48.3225C48.3225 5.20581 48.5605 5.90937 49.0873 6.47668L51.2857 4.43532ZM51.3225 4.476C51.3225 4.43533 51.3285 4.44318 51.3146 4.47971C51.3078 4.49737 51.298 4.51734 51.2849 4.53748C51.2718 4.55758 51.2584 4.57341 51.2472 4.58466L49.1258 2.46334C48.5612 3.028 48.3225 3.74767 48.3225 4.476H51.3225ZM51.2472 4.58466C51.2458 4.58598 51.2392 4.59233 51.2268 4.60057C51.2143 4.60893 51.1998 4.61665 51.1846 4.62271C51.1516 4.63591 51.1396 4.632 51.1665 4.632V1.632C50.4035 1.632 49.6869 1.90231 49.1258 2.46334L51.2472 4.58466ZM51.1665 4.632H66.1465V1.632H51.1665V4.632ZM66.1465 4.632C66.1742 4.632 66.1538 4.63614 66.1074 4.61702C66.0853 4.60791 66.0629 4.59579 66.0423 4.58135C66.0218 4.56702 66.0076 4.55362 65.9993 4.54468L68.1977 2.50332C67.6413 1.90418 66.9096 1.632 66.1465 1.632V4.632ZM66.0778 4.62319C66.0689 4.61489 66.0555 4.60067 66.0412 4.58019C66.0267 4.55957 66.0146 4.53724 66.0055 4.51512C65.9864 4.46868 65.9905 4.44826 65.9905 4.476H68.9905C68.9905 3.71291 68.7183 2.98116 68.1192 2.42481L66.0778 4.62319ZM65.9905 4.476C65.9905 4.50292 65.9866 4.4909 65.9998 4.45791C66.0059 4.44275 66.0136 4.42823 66.0219 4.4157C66.0302 4.40333 66.0365 4.39666 66.0378 4.39534L68.1592 6.51666C68.7202 5.95563 68.9905 5.23904 68.9905 4.476H65.9905ZM66.0378 4.39534C66.0491 4.38408 66.0649 4.37065 66.085 4.35758C66.1052 4.34449 66.1251 4.33467 66.1428 4.32792C66.1793 4.31396 66.1872 4.32 66.1465 4.32V7.32C66.8748 7.32 67.5945 7.08132 68.1592 6.51666L66.0378 4.39534ZM66.1465 4.32H51.1665V7.32H66.1465V4.32ZM78.8397 24.468L78.2695 25.8554L78.2777 25.8588L78.2859 25.862L78.8397 24.468ZM75.3117 22.144L74.2312 23.1845L74.241 23.1947L74.251 23.2047L75.3117 22.144ZM73.0437 18.588L71.6471 19.1353L71.6497 19.1418L73.0437 18.588ZM73.0437 9.544L71.6497 8.99021L71.6497 8.99021L73.0437 9.544ZM75.3117 6.016L74.2412 4.9653L74.241 4.96549L75.3117 6.016ZM78.8397 3.692L79.3935 5.08603L79.4017 5.08277L79.4099 5.07941L78.8397 3.692ZM87.8277 3.692L87.2508 5.07661L87.2623 5.08142L87.2739 5.08603L87.8277 3.692ZM91.3557 6.016L90.2851 7.06675L90.295 7.07666L91.3557 6.016ZM93.6517 9.544L95.0457 8.99021L95.0457 8.99021L93.6517 9.544ZM93.6517 18.588L95.0457 19.1418L95.0483 19.1353L93.6517 18.588ZM91.3557 22.144L92.4164 23.2047L92.4262 23.1947L91.3557 22.144ZM87.8277 24.468L88.3881 25.8594L88.3979 25.8554L87.8277 24.468ZM86.6797 22.004L87.2675 23.3841L87.2796 23.3788L86.6797 22.004ZM89.3397 20.184L90.4134 21.2315L90.4197 21.225L90.4259 21.2185L89.3397 20.184ZM91.0477 17.44L89.6516 16.8915L89.6473 16.9024L89.6432 16.9133L91.0477 17.44ZM91.0477 10.664L89.6432 11.1907L89.6473 11.2016L89.6516 11.2125L91.0477 10.664ZM89.3397 7.948L88.2535 8.98248L88.2597 8.98902L88.266 8.99549L89.3397 7.948ZM86.6797 6.128L86.0919 7.50807L86.101 7.51187L86.6797 6.128ZM79.9877 6.128L79.409 4.7441L79.3999 4.74796L79.9877 6.128ZM77.3557 7.948L76.2695 6.91352L76.2689 6.91418L77.3557 7.948ZM77.3557 20.184L76.2565 21.2047L76.2691 21.2182L76.282 21.2315L77.3557 20.184ZM79.9877 22.004L79.3785 23.3747L79.3937 23.3815L79.409 23.3879L79.9877 22.004ZM83.3477 23.78C81.8719 23.78 80.5599 23.5374 79.3935 23.074L78.2859 25.862C79.8448 26.4813 81.5381 26.78 83.3477 26.78V23.78ZM79.4099 23.0806C78.2208 22.5919 77.214 21.925 76.3724 21.0833L74.251 23.2047C75.388 24.3416 76.7332 25.2241 78.2695 25.8554L79.4099 23.0806ZM76.3922 21.1035C75.563 20.2425 74.9106 19.2246 74.4377 18.0342L71.6497 19.1418C72.2594 20.6767 73.119 22.0295 74.2312 23.1845L76.3922 21.1035ZM74.4403 18.0407C73.9742 16.8515 73.7317 15.5274 73.7317 14.052H70.7317C70.7317 15.8619 71.0305 17.5618 71.6471 19.1353L74.4403 18.0407ZM73.7317 14.052C73.7317 12.5762 73.9743 11.2643 74.4377 10.0978L71.6497 8.99021C71.0304 10.5491 70.7317 12.2424 70.7317 14.052H73.7317ZM74.4377 10.0978C74.9097 8.90965 75.5595 7.90528 76.3824 7.06651L74.241 4.96549C73.1226 6.10539 72.2603 7.45302 71.6497 8.99021L74.4377 10.0978ZM76.3822 7.0667C77.2195 6.21362 78.2175 5.55319 79.3935 5.08603L78.2859 2.29797C76.7365 2.91347 75.3825 3.80238 74.2412 4.9653L76.3822 7.0667ZM79.4099 5.07941C80.5719 4.60185 81.8781 4.352 83.3477 4.352V1.352C81.5319 1.352 79.8328 1.66215 78.2695 2.30459L79.4099 5.07941ZM83.3477 4.352C84.8176 4.352 86.1116 4.60195 87.2508 5.07661L88.4046 2.30738C86.8558 1.66205 85.1631 1.352 83.3477 1.352V4.352ZM87.2739 5.08603C88.4499 5.55319 89.4479 6.21362 90.2852 7.0667L92.4262 4.9653C91.2848 3.80238 89.9309 2.91347 88.3815 2.29797L87.2739 5.08603ZM90.295 7.07666C91.133 7.9146 91.7881 8.91574 92.2577 10.0978L95.0457 8.99021C94.4326 7.44693 93.5571 6.09606 92.4164 4.95534L90.295 7.07666ZM92.2577 10.0978C92.7211 11.2643 92.9637 12.5762 92.9637 14.052H95.9637C95.9637 12.2424 95.665 10.5491 95.0457 8.99021L92.2577 10.0978ZM92.9637 14.052C92.9637 15.5274 92.7211 16.8515 92.2551 18.0407L95.0483 19.1353C95.6649 17.5618 95.9637 15.8619 95.9637 14.052H92.9637ZM92.2577 18.0342C91.7872 19.2186 91.1293 20.2332 90.2852 21.0933L92.4262 23.1947C93.5607 22.0388 94.4336 20.6827 95.0457 19.1418L92.2577 18.0342ZM90.295 21.0833C89.4533 21.925 88.4466 22.5919 87.2575 23.0806L88.3979 25.8554C89.9341 25.2241 91.2794 24.3416 92.4164 23.2047L90.295 21.0833ZM87.2673 23.0766C86.1236 23.5373 84.8238 23.78 83.3477 23.78V26.78C85.1569 26.78 86.8437 26.4814 88.3881 25.8594L87.2673 23.0766ZM83.3477 24.148C84.7413 24.148 86.0546 23.9006 87.2675 23.384L86.0919 20.624C85.2888 20.966 84.3808 21.148 83.3477 21.148V24.148ZM87.2796 23.3788C88.4753 22.8571 89.525 22.1421 90.4134 21.2315L88.266 19.1365C87.661 19.7566 86.9375 20.2549 86.0798 20.6292L87.2796 23.3788ZM90.4259 21.2185C91.3161 20.2838 91.9916 19.1949 92.4522 17.9667L89.6432 16.9133C89.3198 17.7757 88.8566 18.5162 88.2535 19.1495L90.4259 21.2185ZM92.4438 17.9885C92.9285 16.7548 93.1637 15.4379 93.1637 14.052H90.1637C90.1637 15.0928 89.9883 16.0345 89.6516 16.8915L92.4438 17.9885ZM93.1637 14.052C93.1637 12.6661 92.9285 11.3492 92.4438 10.1155L89.6516 11.2125C89.9883 12.0695 90.1637 13.0112 90.1637 14.052H93.1637ZM92.4522 10.1373C91.9905 8.90611 91.3116 7.82121 90.4134 6.90051L88.266 8.99549C88.8611 9.60545 89.3209 10.3312 89.6432 11.1907L92.4522 10.1373ZM90.4259 6.91352C89.532 5.97496 88.4711 5.25127 87.2584 4.74413L86.101 7.51187C86.9416 7.8634 87.654 8.35304 88.2535 8.98248L90.4259 6.91352ZM87.2675 4.74796C86.0546 4.23136 84.7413 3.984 83.3477 3.984V6.984C84.3808 6.984 85.2888 7.16597 86.0919 7.50804L87.2675 4.74796ZM83.3477 3.984C81.9537 3.984 80.6349 4.23146 79.409 4.74413L80.5664 7.51187C81.3938 7.16587 82.315 6.984 83.3477 6.984V3.984ZM79.3999 4.74796C78.2063 5.25636 77.1587 5.97979 76.2695 6.91352L78.4419 8.98248C79.046 8.34821 79.7531 7.85831 80.5755 7.50804L79.3999 4.74796ZM76.2689 6.91418C75.3991 7.82853 74.7285 8.9015 74.2516 10.1155L77.0438 11.2125C77.3882 10.3358 77.8563 9.59814 78.4425 8.98182L76.2689 6.91418ZM74.2516 10.1155C73.7669 11.3492 73.5317 12.6661 73.5317 14.052H76.5317C76.5317 13.0112 76.7071 12.0695 77.0438 11.2125L74.2516 10.1155ZM73.5317 14.052C73.5317 15.4379 73.7669 16.7548 74.2516 17.9885L77.0438 16.8915C76.7071 16.0345 76.5317 15.0928 76.5317 14.052H73.5317ZM74.2516 17.9885C74.7274 19.1996 75.3946 20.2765 76.2565 21.2047L78.4549 19.1633C77.8608 18.5235 77.3894 17.7711 77.0438 16.8915L74.2516 17.9885ZM76.282 21.2315C77.1658 22.1374 78.2022 22.8519 79.3785 23.3747L80.5969 20.6333C79.7572 20.2601 79.0389 19.7613 78.4294 19.1365L76.282 21.2315ZM79.409 23.3879C80.6349 23.9005 81.9537 24.148 83.3477 24.148V21.148C82.315 21.148 81.3938 20.9661 80.5664 20.6201L79.409 23.3879ZM103.337 24.58L102.24 25.6035L102.258 25.6224L102.276 25.6407L103.337 24.58ZM103.365 3.552L102.304 2.49134L102.304 2.49134L103.365 3.552ZM105.829 22.088H104.329V23.588H105.829V22.088ZM117.001 22.508L118.062 21.4473L118.062 21.4473L117.001 22.508ZM117.001 24.58L118.062 25.6407L118.062 25.6407L117.001 24.58ZM104.373 23.5C104.356 23.5 104.349 23.4986 104.35 23.4988C104.352 23.4992 104.359 23.5007 104.369 23.5049C104.38 23.5091 104.389 23.5141 104.395 23.5185C104.402 23.5228 104.402 23.5242 104.398 23.5193L102.276 25.6407C102.849 26.2134 103.581 26.5 104.373 26.5V23.5ZM104.433 23.5565C104.431 23.5537 104.433 23.5552 104.436 23.561C104.44 23.567 104.443 23.5738 104.446 23.5802C104.448 23.5864 104.448 23.5885 104.447 23.5843C104.447 23.5798 104.445 23.567 104.445 23.544H101.445C101.445 24.3046 101.7 25.0245 102.24 25.6035L104.433 23.5565ZM104.445 23.544V4.588H101.445V23.544H104.445ZM104.445 4.588C104.445 4.57077 104.446 4.56391 104.446 4.56538C104.446 4.56716 104.444 4.57427 104.44 4.58456C104.436 4.59492 104.431 4.60398 104.426 4.61058C104.422 4.617 104.421 4.61753 104.426 4.61266L102.304 2.49134C101.731 3.06408 101.445 3.79598 101.445 4.588H104.445ZM104.426 4.61266C104.433 4.60474 104.435 4.60423 104.43 4.60759C104.425 4.61111 104.416 4.61649 104.404 4.62162C104.391 4.62675 104.38 4.62976 104.373 4.63126C104.365 4.63271 104.364 4.632 104.373 4.632V1.632C103.579 1.632 102.862 1.93324 102.304 2.49134L104.426 4.61266ZM104.373 4.632C104.39 4.632 104.397 4.63345 104.395 4.63317C104.394 4.63284 104.387 4.63128 104.376 4.62711C104.366 4.62291 104.357 4.61789 104.35 4.61346C104.344 4.60915 104.343 4.60779 104.348 4.61266L106.47 2.49134C105.897 1.9186 105.165 1.632 104.373 1.632V4.632ZM104.348 4.61266C104.353 4.61753 104.352 4.617 104.347 4.61058C104.343 4.60398 104.338 4.59492 104.334 4.58456C104.33 4.57427 104.328 4.56716 104.328 4.56538C104.327 4.56391 104.329 4.57077 104.329 4.588H107.329C107.329 3.79598 107.042 3.06408 106.47 2.49134L104.348 4.61266ZM104.329 4.588V22.088H107.329V4.588H104.329ZM105.829 23.588H115.965V20.588H105.829V23.588ZM115.965 23.588C115.982 23.588 115.989 23.5894 115.987 23.5892C115.986 23.5888 115.979 23.5873 115.968 23.5831C115.958 23.5789 115.949 23.5739 115.942 23.5695C115.936 23.5652 115.935 23.5638 115.94 23.5687L118.062 21.4473C117.489 20.8746 116.757 20.588 115.965 20.588V23.588ZM115.94 23.5687C115.945 23.5735 115.944 23.573 115.939 23.5666C115.935 23.56 115.93 23.5509 115.926 23.5406C115.922 23.5303 115.92 23.5232 115.92 23.5214C115.919 23.5199 115.921 23.5268 115.921 23.544H118.921C118.921 22.752 118.634 22.0201 118.062 21.4473L115.94 23.5687ZM115.921 23.544C115.921 23.5612 115.919 23.5681 115.92 23.5666C115.92 23.5648 115.922 23.5577 115.926 23.5474C115.93 23.5371 115.935 23.528 115.939 23.5214C115.944 23.515 115.945 23.5145 115.94 23.5193L118.062 25.6407C118.634 25.0679 118.921 24.336 118.921 23.544H115.921ZM115.94 23.5193C115.935 23.5242 115.936 23.5228 115.942 23.5185C115.949 23.5141 115.958 23.5091 115.968 23.5049C115.979 23.5007 115.986 23.4992 115.987 23.4988C115.989 23.4986 115.982 23.5 115.965 23.5V26.5C116.757 26.5 117.489 26.2134 118.062 25.6407L115.94 23.5193ZM115.965 23.5H104.373V26.5H115.965V23.5ZM128.461 24.468L127.891 25.8554L127.899 25.8588L127.907 25.862L128.461 24.468ZM124.933 22.144L123.852 23.1845L123.862 23.1947L123.872 23.2047L124.933 22.144ZM122.665 18.588L121.268 19.1353L121.271 19.1418L122.665 18.588ZM122.665 9.544L121.271 8.99021L121.271 8.99021L122.665 9.544ZM124.933 6.016L123.862 4.9653L123.862 4.96549L124.933 6.016ZM128.461 3.692L129.015 5.08603L129.023 5.08277L129.031 5.07941L128.461 3.692ZM137.449 3.692L136.872 5.07661L136.884 5.08142L136.895 5.08603L137.449 3.692ZM140.977 6.016L139.906 7.06675L139.916 7.07666L140.977 6.016ZM143.273 9.544L144.667 8.99021L144.667 8.99021L143.273 9.544ZM143.273 18.588L144.667 19.1418L144.67 19.1353L143.273 18.588ZM140.977 22.144L142.038 23.2047L142.047 23.1947L140.977 22.144ZM137.449 24.468L138.009 25.8594L138.019 25.8554L137.449 24.468ZM136.301 22.004L136.889 23.3841L136.901 23.3788L136.301 22.004ZM138.961 20.184L140.035 21.2315L140.041 21.225L140.047 21.2185L138.961 20.184ZM140.669 17.44L139.273 16.8915L139.269 16.9024L139.264 16.9133L140.669 17.44ZM140.669 10.664L139.264 11.1907L139.269 11.2016L139.273 11.2125L140.669 10.664ZM138.961 7.948L137.875 8.98248L137.881 8.98902L137.887 8.99549L138.961 7.948ZM136.301 6.128L135.713 7.50807L135.722 7.51187L136.301 6.128ZM129.609 6.128L129.03 4.7441L129.021 4.74796L129.609 6.128ZM126.977 7.948L125.891 6.91352L125.89 6.91418L126.977 7.948ZM126.977 20.184L125.878 21.2047L125.89 21.2182L125.903 21.2315L126.977 20.184ZM129.609 22.004L129 23.3747L129.015 23.3815L129.03 23.3879L129.609 22.004ZM132.969 23.78C131.493 23.78 130.181 23.5374 129.015 23.074L127.907 25.862C129.466 26.4813 131.159 26.78 132.969 26.78V23.78ZM129.031 23.0806C127.842 22.5919 126.835 21.925 125.994 21.0833L123.872 23.2047C125.009 24.3416 126.354 25.2241 127.891 25.8554L129.031 23.0806ZM126.013 21.1035C125.184 20.2425 124.532 19.2246 124.059 18.0342L121.271 19.1418C121.881 20.6767 122.74 22.0295 123.852 23.1845L126.013 21.1035ZM124.062 18.0407C123.595 16.8515 123.353 15.5274 123.353 14.052H120.353C120.353 15.8619 120.652 17.5618 121.268 19.1353L124.062 18.0407ZM123.353 14.052C123.353 12.5762 123.596 11.2643 124.059 10.0978L121.271 8.99021C120.652 10.5491 120.353 12.2424 120.353 14.052H123.353ZM124.059 10.0978C124.531 8.90965 125.181 7.90528 126.004 7.06651L123.862 4.96549C122.744 6.10539 121.882 7.45302 121.271 8.99021L124.059 10.0978ZM126.003 7.0667C126.841 6.21362 127.839 5.55319 129.015 5.08603L127.907 2.29797C126.358 2.91347 125.004 3.80238 123.862 4.9653L126.003 7.0667ZM129.031 5.07941C130.193 4.60185 131.499 4.352 132.969 4.352V1.352C131.153 1.352 129.454 1.66215 127.891 2.30459L129.031 5.07941ZM132.969 4.352C134.439 4.352 135.733 4.60195 136.872 5.07661L138.026 2.30738C136.477 1.66205 134.784 1.352 132.969 1.352V4.352ZM136.895 5.08603C138.071 5.55319 139.069 6.21362 139.906 7.0667L142.047 4.9653C140.906 3.80238 139.552 2.91347 138.003 2.29797L136.895 5.08603ZM139.916 7.07666C140.754 7.9146 141.409 8.91574 141.879 10.0978L144.667 8.99021C144.054 7.44693 143.178 6.09606 142.038 4.95534L139.916 7.07666ZM141.879 10.0978C142.342 11.2643 142.585 12.5762 142.585 14.052H145.585C145.585 12.2424 145.286 10.5491 144.667 8.99021L141.879 10.0978ZM142.585 14.052C142.585 15.5274 142.342 16.8515 141.876 18.0407L144.67 19.1353C145.286 17.5618 145.585 15.8619 145.585 14.052H142.585ZM141.879 18.0342C141.408 19.2186 140.751 20.2332 139.906 21.0933L142.047 23.1947C143.182 22.0388 144.055 20.6827 144.667 19.1418L141.879 18.0342ZM139.916 21.0833C139.075 21.925 138.068 22.5919 136.879 23.0806L138.019 25.8554C139.555 25.2241 140.901 24.3416 142.038 23.2047L139.916 21.0833ZM136.889 23.0766C135.745 23.5373 134.445 23.78 132.969 23.78V26.78C134.778 26.78 136.465 26.4814 138.009 25.8594L136.889 23.0766ZM132.969 24.148C134.363 24.148 135.676 23.9006 136.889 23.384L135.713 20.624C134.91 20.966 134.002 21.148 132.969 21.148V24.148ZM136.901 23.3788C138.097 22.8571 139.146 22.1421 140.035 21.2315L137.887 19.1365C137.282 19.7566 136.559 20.2549 135.701 20.6292L136.901 23.3788ZM140.047 21.2185C140.937 20.2838 141.613 19.1949 142.073 17.9667L139.264 16.9133C138.941 17.7757 138.478 18.5162 137.875 19.1495L140.047 21.2185ZM142.065 17.9885C142.55 16.7548 142.785 15.4379 142.785 14.052H139.785C139.785 15.0928 139.609 16.0345 139.273 16.8915L142.065 17.9885ZM142.785 14.052C142.785 12.6661 142.55 11.3492 142.065 10.1155L139.273 11.2125C139.609 12.0695 139.785 13.0112 139.785 14.052H142.785ZM142.073 10.1373C141.612 8.90611 140.933 7.82121 140.035 6.90051L137.887 8.99549C138.482 9.60545 138.942 10.3312 139.264 11.1907L142.073 10.1373ZM140.047 6.91352C139.153 5.97496 138.092 5.25127 136.88 4.74413L135.722 7.51187C136.563 7.8634 137.275 8.35304 137.875 8.98248L140.047 6.91352ZM136.889 4.74796C135.676 4.23136 134.363 3.984 132.969 3.984V6.984C134.002 6.984 134.91 7.16597 135.713 7.50804L136.889 4.74796ZM132.969 3.984C131.575 3.984 130.256 4.23146 129.03 4.74413L130.188 7.51187C131.015 7.16587 131.936 6.984 132.969 6.984V3.984ZM129.021 4.74796C127.828 5.25636 126.78 5.97979 125.891 6.91352L128.063 8.98248C128.667 8.34821 129.374 7.85831 130.197 7.50804L129.021 4.74796ZM125.89 6.91418C125.02 7.82853 124.35 8.9015 123.873 10.1155L126.665 11.2125C127.009 10.3358 127.478 9.59814 128.064 8.98182L125.89 6.91418ZM123.873 10.1155C123.388 11.3492 123.153 12.6661 123.153 14.052H126.153C126.153 13.0112 126.328 12.0695 126.665 11.2125L123.873 10.1155ZM123.153 14.052C123.153 15.4379 123.388 16.7548 123.873 17.9885L126.665 16.8915C126.328 16.0345 126.153 15.0928 126.153 14.052H123.153ZM123.873 17.9885C124.349 19.1996 125.016 20.2765 125.878 21.2047L128.076 19.1633C127.482 18.5235 127.011 17.7711 126.665 16.8915L123.873 17.9885ZM125.903 21.2315C126.787 22.1374 127.823 22.8519 129 23.3747L130.218 20.6333C129.378 20.2601 128.66 19.7613 128.051 19.1365L125.903 21.2315ZM129.03 23.3879C130.256 23.9005 131.575 24.148 132.969 24.148V21.148C131.936 21.148 131.015 20.9661 130.188 20.6201L129.03 23.3879Z" fill="white"/>
<path d="M43.6436 46.6521C43.5175 46.6521 43.4071 46.6087 43.3125 46.522C43.2258 46.4353 43.1825 46.325 43.1825 46.1909V37.8782C43.1825 37.7521 43.2258 37.6457 43.3125 37.5589C43.4071 37.4643 43.5175 37.417 43.6436 37.417C43.7698 37.417 43.8762 37.4643 43.9629 37.5589C44.0575 37.6457 44.1048 37.7521 44.1048 37.8782V45.7771H48.7282C48.8544 45.7771 48.9608 45.8204 49.0475 45.9071C49.1421 45.986 49.1894 46.0885 49.1894 46.2146C49.1894 46.3407 49.1421 46.4471 49.0475 46.5339C48.9608 46.6127 48.8544 46.6521 48.7282 46.6521H43.6436ZM62.9511 46.6521C62.8171 46.6521 62.7067 46.6087 62.62 46.522C62.5333 46.4353 62.4899 46.325 62.4899 46.1909V37.8782C62.4899 37.7442 62.5333 37.6338 62.62 37.5471C62.7067 37.4604 62.8171 37.417 62.9511 37.417C63.0851 37.417 63.1954 37.4604 63.2822 37.5471C63.3689 37.6338 63.4122 37.7442 63.4122 37.8782V46.1909C63.4122 46.325 63.3689 46.4353 63.2822 46.522C63.1954 46.6087 63.0851 46.6521 62.9511 46.6521ZM80.2898 46.6521C80.1637 46.6521 80.0533 46.6087 79.9587 46.522C79.872 46.4274 79.8286 46.3171 79.8286 46.1909V37.417H80.751V46.1909C80.751 46.3171 80.7076 46.4274 80.6209 46.522C80.5342 46.6087 80.4238 46.6521 80.2898 46.6521ZM77.0262 38.2566C76.9001 38.2566 76.7976 38.2172 76.7188 38.1383C76.6399 38.0595 76.6005 37.961 76.6005 37.8427C76.6005 37.7166 76.6399 37.6141 76.7188 37.5353C76.7976 37.4565 76.9001 37.417 77.0262 37.417H83.5652C83.6914 37.417 83.7938 37.4565 83.8727 37.5353C83.9515 37.6141 83.9909 37.7166 83.9909 37.8427C83.9909 37.961 83.9515 38.0595 83.8727 38.1383C83.7938 38.2172 83.6914 38.2566 83.5652 38.2566H77.0262ZM97.6398 46.6521C97.5058 46.6521 97.3954 46.6087 97.3087 46.522C97.222 46.4353 97.1786 46.325 97.1786 46.1909V37.8782C97.1786 37.7442 97.222 37.6338 97.3087 37.5471C97.3954 37.4604 97.5058 37.417 97.6398 37.417H103.186C103.312 37.417 103.418 37.4604 103.505 37.5471C103.599 37.6259 103.647 37.7324 103.647 37.8664C103.647 37.9846 103.599 38.0871 103.505 38.1738C103.418 38.2605 103.312 38.3039 103.186 38.3039H98.101V41.5675H101.802C101.936 41.5675 102.046 41.6109 102.133 41.6976C102.22 41.7843 102.263 41.8907 102.263 42.0168C102.263 42.143 102.22 42.2494 102.133 42.3361C102.046 42.4228 101.936 42.4662 101.802 42.4662H98.101V45.7653H103.186C103.312 45.7653 103.418 45.8086 103.505 45.8953C103.599 45.982 103.647 46.0845 103.647 46.2028C103.647 46.3368 103.599 46.4471 103.505 46.5339C103.418 46.6127 103.312 46.6521 103.186 46.6521H97.6398Z" fill="white"/>
</svg>
